# xmcd
#
# Track frame offsets: 
#        150
#        14335
#        27390
#        40290
#        51770
#        62985
#        72910
#        82215
#        96020
#        106852
#        116410
#        126937
#        137042
#        147742
#        159632
#        170027
#        182285
#        193285
#        204900
#        214707
#        225570
#        234485
#        246472
#        256527
#        265962
#        276097
#        286007
#        296685
#        307487
#
# Disc length: 4242 seconds
#
# Revision: 5
# Processed by: cddbd v1.5.2PL0 Copyright (c) Steve Scherf et al.
# Submitted via: ExactAudioCopy v1.1
#
DISCID=bd10901d
DTITLE=Webb Pierce - The Wondering Boy 1951-1958 - Disc 3
DYEAR=1990
DGENRE=Country
TTITLE0=Call Me Your Sweetheart (mono)
TTITLE1=If You Were Me (And I Were You) (mono)
TTITLE2=Love, Love, Love (mono)
TTITLE3=Red Sovine and Webb Pierce - Why, Baby Why (mono)
TTITLE4=Yes, I Know Why (I Want To Cry) (mono)
TTITLE5=I Found A True Love (mono)
TTITLE6='Cause I Love You (mono)
TTITLE7=Red Sovine and Webb Pierce - Little Rosa (version 2) (mono)
TTITLE8=Let Forgiveness In (version 1) (mono)
TTITLE9=Any Old Time (mono)
TTITLE10=You Make Love To Everyone (mono)
TTITLE11=We'll Find A Way (mono)
TTITLE12=Teenage Boogie (version 1) (mono)
TTITLE13=I'm Really Glad You Hurt Me (mono)
TTITLE14=Teenage Boogie (version 2) (mono)
TTITLE15=Kitty Wells and Webb Pierce - Oh, So Many Years (mono)
TTITLE16=Webb Pierce and Kitty Wells - One Week Later (mono)
TTITLE17=Kitty Wells and Webb Pierce - When I'm With You (mono)
TTITLE18=Webb Pierce and Kitty Wells - Can I Find It In Your Heart (mono
TTITLE18=)
TTITLE19=Crying Over You (mono)
TTITLE20=I'm Tired (mono)
TTITLE21=It's My Way (mono)
TTITLE22=Someday (mono)
TTITLE23=Honky Tonk Song (mono)
TTITLE24=I Care No More - Don't Be The One (mono)
TTITLE25=Bye Bye Love (mono)
TTITLE26=Missing You (1957)
TTITLE27=Let Forgiveness In (version 2) (mono)
TTITLE28=Who Wouldn't Love You (1957)
EXTD=The Wondering "Boy" 1951-1958 - Disc 3 of 4\n© 1990 Bear Family R
EXTD=ecords\n\nUPC: 4000127155221\nCat Number: BCD 15522 DH\n\nOrigina
EXTD=lly Released September 15, 1990\n\n\nAMG EXPERT REVIEW:  \nFor th
EXTD=e devout, Germany's Bear Family offers a 4-CD boxed set of Pierce
EXTD='s primal honky tonk, a total of 113 songs by one of the seminal 
EXTD=post-war country artists, including duets with Kitty Wells, Red S
EXTD=ovine, and the Wilburn Brothers. This is the best sound quality a
EXTD=nd presentation available of this influential music.  -- Mark A. 
EXTD=Humphrey\n\nAmazon.com Editorial Review: \n(4-CD LP-sized box set
EXTD=with 36-page book) Webb Pierce is one of the neglected giants of
EXTD=post-War country music. No-one sold more records in the '50s, ye
EXTD=t those classic cuts were never available on CD until this set. H
EXTD=ere they are again... Back Street Affair, More And More, I Don't 
EXTD=Care, There Stands The Glass, In The Jailhouse Now, Honky Tonk So
EXTD=ng, Any Old Time, Teenage Boogie, Slowly, Honky Tonk Song, I'm Wa
EXTD=lking The Dog...they're all here. 113 performances - an incredibl
EXTD=e 40 of them were hits!
EXTT0=
EXTT1=
EXTT2=
EXTT3=
EXTT4=
EXTT5=
EXTT6=
EXTT7=
EXTT8=
EXTT9=
EXTT10=
EXTT11=
EXTT12=
EXTT13=
EXTT14=
EXTT15=
EXTT16=
EXTT17=
EXTT18=
EXTT19=
EXTT20=
EXTT21=
EXTT22=
EXTT23=
EXTT24=
EXTT25=
EXTT26=
EXTT27=
EXTT28=
PLAYORDER=
